<mxfile host="app.diagrams.net" agent="Mozilla/5.0 (Windows NT 10.0; Win64; x64) AppleWebKit/537.36 (KHTML, like Gecko) Chrome/130.0.0.0 Safari/537.36 Edg/130.0.0.0" version="24.8.3">
  <diagram name="Page-1" id="c4acf3e9-155e-7222-9cf6-157b1a14988f">
    <mxGraphModel dx="1050" dy="569" grid="1" gridSize="10" guides="1" tooltips="1" connect="1" arrows="1" fold="1" page="1" pageScale="1" pageWidth="850" pageHeight="1100" background="none" math="0" shadow="0">
      <root>
        <mxCell id="0" />
        <mxCell id="1" parent="0" />
        <mxCell id="fIBgHePDbrKv4Eu6Q4dw-2" value="quiz" style="swimlane;whiteSpace=wrap;html=1;" vertex="1" parent="1">
          <mxGeometry x="400" y="600" width="205" height="200" as="geometry" />
        </mxCell>
        <mxCell id="fIBgHePDbrKv4Eu6Q4dw-3" value="" style="endArrow=none;html=1;rounded=0;entryX=1;entryY=0.25;entryDx=0;entryDy=0;exitX=0;exitY=0.25;exitDx=0;exitDy=0;" edge="1" parent="fIBgHePDbrKv4Eu6Q4dw-2">
          <mxGeometry width="50" height="50" relative="1" as="geometry">
            <mxPoint y="80" as="sourcePoint" />
            <mxPoint x="200" y="80" as="targetPoint" />
          </mxGeometry>
        </mxCell>
        <mxCell id="fIBgHePDbrKv4Eu6Q4dw-4" value=" - questions: List&amp;lt;Question&amp;gt;&lt;div&gt;- participants: List&amp;lt;Participant&amp;gt;&lt;/div&gt;" style="text;html=1;align=center;verticalAlign=middle;resizable=0;points=[];autosize=1;strokeColor=none;fillColor=none;" vertex="1" parent="fIBgHePDbrKv4Eu6Q4dw-2">
          <mxGeometry x="5" y="20" width="190" height="40" as="geometry" />
        </mxCell>
        <mxCell id="fIBgHePDbrKv4Eu6Q4dw-5" value="+ addQuestion(question: Question)" style="text;html=1;align=center;verticalAlign=middle;resizable=0;points=[];autosize=1;strokeColor=none;fillColor=none;" vertex="1" parent="fIBgHePDbrKv4Eu6Q4dw-2">
          <mxGeometry x="-5" y="85" width="210" height="30" as="geometry" />
        </mxCell>
        <mxCell id="fIBgHePDbrKv4Eu6Q4dw-6" value="" style="swimlane;whiteSpace=wrap;html=1;" vertex="1" parent="1">
          <mxGeometry x="110" y="710" width="200" height="200" as="geometry" />
        </mxCell>
        <mxCell id="fIBgHePDbrKv4Eu6Q4dw-7" value="Vertical Container" style="swimlane;whiteSpace=wrap;html=1;" vertex="1" parent="1">
          <mxGeometry x="40" y="450" width="200" height="200" as="geometry" />
        </mxCell>
        <mxCell id="fIBgHePDbrKv4Eu6Q4dw-8" value="Vertical Container" style="swimlane;whiteSpace=wrap;html=1;" vertex="1" parent="1">
          <mxGeometry x="425" y="850" width="200" height="200" as="geometry" />
        </mxCell>
      </root>
    </mxGraphModel>
  </diagram>
</mxfile>
